<?xml version="1.0" standalone="no"?>
<!DOCTYPE svg PUBLIC "-//W3C//DTD SVG 20010904//EN"
 "http://www.w3.org/TR/2001/REC-SVG-20010904/DTD/svg10.dtd">
<svg version="1.0" xmlns="http://www.w3.org/2000/svg"
 width="512.000000pt" height="512.000000pt" viewBox="0 0 512.000000 512.000000"
 preserveAspectRatio="xMidYMid meet">
<metadata>
Created by potrace 1.14, written by Peter Selinger 2001-2017
</metadata>
<g transform="translate(0.000000,512.000000) scale(0.100000,-0.100000)"
fill="#000000" stroke="none">
<path d="M2409 4896 c-2 -2 -42 -7 -89 -10 -47 -4 -148 -20 -225 -36 -173 -36
-162 -33 -267 -69 -678 -229 -1212 -751 -1450 -1416 -40 -111 -81 -258 -92
-329 -4 -21 -8 -48 -11 -60 -22 -100 -30 -204 -30 -406 1 -216 5 -267 35 -421
70 -365 208 -675 434 -974 77 -103 102 -130 211 -240 117 -116 167 -159 295
-249 281 -197 581 -326 905 -386 86 -16 109 -20 160 -25 28 -3 72 -8 99 -11
112 -13 372 -5 496 16 30 5 73 12 95 15 22 3 78 15 125 25 641 151 1205 587
1514 1171 57 109 138 299 163 384 25 87 62 234 68 272 3 21 10 67 16 102 28
176 30 510 3 643 -2 13 -7 43 -10 68 -3 25 -10 63 -16 85 -6 22 -12 51 -15 65
-8 49 -62 230 -82 275 -4 11 -23 56 -41 100 -54 130 -181 356 -252 450 -4 6
-23 29 -40 52 -18 22 -44 56 -58 74 -52 69 -279 287 -373 358 -353 265 -679
397 -1152 467 -46 6 -410 15 -416 10z"/>
</g>
</svg>
